<svg height="200px" width="200px" version="1.1" id="Layer_1" xmlns="http://www.w3.org/2000/svg"
    xmlns:xlink="http://www.w3.org/1999/xlink" viewBox="0 0 508 508" xml:space="preserve" fill="#000000">
    <g id="SVGRepo_bgCarrier" stroke-width="0"></g>
    <g id="SVGRepo_tracerCarrier" stroke-linecap="round" stroke-linejoin="round"></g>
    <g id="SVGRepo_iconCarrier">
        <path style="fill:#4BB19B;"
            d="M254,502c136.8,0,248-111.2,248-248S390.8,6,254,6S6,117.2,6,254S117.2,502,254,502z M254,33.6 c51.2,0,101.2,18,138.8,52l28,28c35.2,38.8,53.2,88.8,53.2,140C474,375.2,375.2,474,253.6,474S33.2,375.2,33.2,253.6 S132.4,33.6,254,33.6z">
        </path>
        <path style="fill:#61C2AB;"
            d="M254,470.4c119.2,0,216.4-97.2,216.4-216.4c0-50.4-18-99.6-48.8-139.6l-28-28 c-40-30.8-89.2-48.8-139.6-48.8C134.8,37.6,37.6,134.8,37.6,254C37.6,373.2,134.8,470.4,254,470.4z M120.4,253.2 c0.4-2.4,2.8-6,12-7.6l94.4-18.8l16-91.2c1.6-10.4,6-12,8-12c3.6,0,6.8,3.2,10,9.6l106.4,220.4c2.8,6,3.2,10.4,1.6,13.6 c-0.4,0.4-0.8,0.8-1.2,1.2c0,0,0,0,0,0.4c-0.4,0.4-0.4,0.4-0.8,0.4c-1.2,0.8-2.4,1.2-4.4,1.2c-2.4,0-5.6-0.8-9.2-2.4L130,264 C121.6,259.6,120,256,120.4,253.2z">
        </path>
        <path style="fill:#FFC52F;"
            d="M367.2,353.2L260.8,132.8c-3.2-6.4-6.4-9.6-10-9.6c-2.4,0-6.4,1.6-8,12l-16,91.2l-94.4,18.8 c-9.2,1.6-11.6,5.2-12,7.6s1.2,6.4,9.6,10.4l223.2,104c3.6,1.6,6.4,2.4,9.2,2.4c2,0,3.2-0.4,4.4-1.2c-0.4,0,1.2-0.8,2-2 C370.8,364,370.4,359.2,367.2,353.2z">
        </path>
        <path style="fill:#E9B526;"
            d="M226.8,226.8l-94.4,18.8c-9.2,1.6-11.6,5.2-12,7.6s1.2,6.4,9.6,10.4l223.2,104 c3.6,1.6,6.4,2.4,9.2,2.4c2,0,3.2-0.4,4.4-1.2C366.4,369.2,226.8,226.8,226.8,226.8z">
        </path>
        <g>
            <path style="fill:#CCCCCC;"
                d="M367.6,368.4L367.6,368.4c0,0-0.4,0.4-0.8,0.4C367.2,368.8,367.2,368.8,367.6,368.4z"></path>
            <path style="fill:#CCCCCC;"
                d="M367.6,365.6L367.6,365.6c-0.4,0.4-0.8,0.8-1.6,1.2l0,0l0,0c-0.4,0.4-1.2,0.8-2,0.8l0.8,0.8 c0.4,0.4,0.8,0.4,1.6,0.4c0.4,0,0.4,0,0.8,0c0.4-0.4,0.4-0.4,0.8-0.8C368.4,367.6,368,366.4,367.6,365.6z">
            </path>
            <path style="fill:#CCCCCC;" d="M229.2,226c-0.8,0-1.2,0-1.6,0.4c-0.8,0.8-0.8,1.6-0.4,2.4l1.6-0.4L229.2,226z">
            </path>
            <path style="fill:#CCCCCC;"
                d="M365.6,364.8c-0.4,0.4-0.4,0.4-0.8,0.8l1.6,1.6c0.4-0.4,0.8-0.8,1.2-1.6L366,364 C365.6,364.4,365.6,364.4,365.6,364.8z">
            </path>
            <path style="fill:#CCCCCC;" d="M364.4,365.6c-0.4,0.4-1.2,0.4-2.4,0.4l2,2c0.8,0,1.6-0.4,2-0.8L364.4,365.6z">
            </path>
            <path style="fill:#CCCCCC;"
                d="M228.4,230.4h0.4c0.4,0,0.8-0.4,1.2-1.2l-1.6-1.6l1.6,1.6l0.4-0.4l0.4-1.6l-0.8-0.8 c-0.4-0.4-0.8-0.4-1.2-0.4l-0.4,2.4l-1.6,0.4">
            </path>
        </g>
        <path
            d="M362.4,372c-2.4,0-6-0.8-10-2.8l-223.2-104c-9.6-4.4-11.2-9.2-10.8-12.4s3.2-7.6,13.6-9.6l93.2-18.4l16-90 c1.6-10.4,6-13.2,9.2-13.6s8,0.8,12.8,10.4L369.6,352l0,0c4.4,9.6,2.8,14.4,0.4,16.8C368,370.8,366,372,362.4,372z M251.2,129.6 c-0.4,0.4-1.6,2-2.4,7.2l-16.4,92.8c-0.4,1.6-1.6,2.8-3.2,3.2L133.6,252c-5.2,0.8-6.8,2.4-7.2,2.8c0,0,1.6,2,6.4,4l223.2,104 c5.2,2.4,7.6,2,8,1.6s0.8-2.4-1.6-8L256,136C253.6,131.2,252,130,251.2,129.6z">
        </path>
        <path
            d="M366,371.2c-1.2,0-2-0.4-2.8-1.2L261.6,267.2c-1.6-1.6-1.6-4,0-5.6s4-1.6,5.6,0l101.6,102.8c1.6,1.6,1.6,4,0,5.6 C368,370.8,367.2,371.2,366,371.2z">
        </path>
        <path
            d="M238.4,242c-1.2,0-2-0.4-2.8-1.2l-10-10c-1.6-1.6-1.6-4,0-5.6s4-1.6,5.6,0l10,10c1.6,1.6,1.6,4,0,5.6 C240.4,241.6,239.6,242,238.4,242z">
        </path>
        <path
            d="M254,508C114,508,0,394,0,254S114,0,254,0s254,114,254,254S394,508,254,508z M254,8C118.4,8,8,118.4,8,254 s110.4,246,246,246s246-110.4,246-246S389.6,8,254,8z">
        </path>
        <path
            d="M254,476.4c-122.4,0-222.4-99.6-222.4-222.4S131.2,31.6,254,31.6c52,0,102.4,18.4,142,51.6c1.6,1.6,2,4,0.4,5.6 s-4,2-5.6,0.4c-38.4-32-87.2-49.6-137.2-49.6c-118,0-214.4,96-214.4,214.4s96,214.4,214.4,214.4c118,0,214.4-96,214.4-214.4 c0-50-17.6-98.8-49.6-137.2c-1.6-1.6-1.2-4.4,0.4-5.6c1.6-1.6,4.4-1.2,5.6,0.4c33.2,40,51.6,90.4,51.6,142 C476.4,376.4,376.4,476.4,254,476.4z">
        </path>
    </g>
</svg>